<svg xmlns="http://www.w3.org/2000/svg" xmlns:xlink="http://www.w3.org/1999/xlink" width="2000" zoomAndPan="magnify" viewBox="0 0 1500 1499.999933" height="2000" preserveAspectRatio="xMidYMid meet" version="1.0"><defs><g/><clipPath id="f71ae86366"><path d="M 125.261719 46.035156 L 1394.261719 46.035156 L 1394.261719 1174.035156 L 125.261719 1174.035156 Z M 125.261719 46.035156 " clip-rule="nonzero"/></clipPath><clipPath id="5879b309c3"><rect x="0" width="354" y="0" height="169"/></clipPath><clipPath id="b4038548e0"><rect x="0" width="843" y="0" height="86"/></clipPath></defs><g clip-path="url(#f71ae86366)"><path fill="#181818" d="M 740.527344 1174.195312 L 125.261719 51.261719 L 359.773438 51.261719 L 860.679688 962.558594 Z M 195.808594 93.136719 L 741.171875 1088.511719 L 813.003906 962.558594 L 335.289062 93.136719 Z M 1123.535156 46.105469 L 881.941406 467.449219 L 907.066406 507.714844 L 1147.695312 87.984375 L 1321.964844 87.984375 L 920.917969 786.03125 L 644.210938 298.332031 L 501.828125 47.71875 L 453.832031 47.71875 L 920.59375 870.429688 L 1394.121094 46.105469 Z M 1123.535156 46.105469 " fill-opacity="1" fill-rule="nonzero"/></g><g transform="matrix(1, 0, 0, 1, 583, 1185)"><g clip-path="url(#5879b309c3)"><g fill="#181818" fill-opacity="1"><g transform="translate(5.280738, 133.2596)"><g><path d="M 103.8125 -96.125 L 62.203125 0 L 40.234375 0 L -1.234375 -96.125 L 22.796875 -96.125 L 52.046875 -27.46875 L 81.703125 -96.125 Z M 103.8125 -96.125 "/></g></g></g><g fill="#181818" fill-opacity="1"><g transform="translate(128.302227, 133.2596)"><g><path d="M 85.828125 -17.859375 L 85.828125 0 L 11.390625 0 L 11.390625 -96.125 L 84.046875 -96.125 L 84.046875 -78.28125 L 33.515625 -78.28125 L 33.515625 -57.40625 L 78.140625 -57.40625 L 78.140625 -40.09375 L 33.515625 -40.09375 L 33.515625 -17.859375 Z M 85.828125 -17.859375 "/></g></g></g><g fill="#181818" fill-opacity="1"><g transform="translate(241.026627, 133.2596)"><g><path d="M 42.984375 1.640625 C 35.378906 1.640625 28.03125 0.613281 20.9375 -1.4375 C 13.84375 -3.5 8.144531 -6.175781 3.84375 -9.46875 L 11.390625 -26.234375 C 15.515625 -23.210938 20.414062 -20.785156 26.09375 -18.953125 C 31.769531 -17.117188 37.445312 -16.203125 43.125 -16.203125 C 49.4375 -16.203125 54.101562 -17.140625 57.125 -19.015625 C 60.144531 -20.890625 61.65625 -23.382812 61.65625 -26.5 C 61.65625 -28.789062 60.757812 -30.691406 58.96875 -32.203125 C 57.1875 -33.710938 54.898438 -34.925781 52.109375 -35.84375 C 49.316406 -36.757812 45.539062 -37.765625 40.78125 -38.859375 C 33.457031 -40.597656 27.460938 -42.335938 22.796875 -44.078125 C 18.128906 -45.816406 14.125 -48.609375 10.78125 -52.453125 C 7.4375 -56.304688 5.765625 -61.4375 5.765625 -67.84375 C 5.765625 -73.425781 7.273438 -78.484375 10.296875 -83.015625 C 13.316406 -87.546875 17.867188 -91.140625 23.953125 -93.796875 C 30.046875 -96.453125 37.488281 -97.78125 46.28125 -97.78125 C 52.414062 -97.78125 58.410156 -97.046875 64.265625 -95.578125 C 70.128906 -94.117188 75.257812 -92.015625 79.65625 -89.265625 L 72.78125 -72.375 C 63.90625 -77.40625 55.023438 -79.921875 46.140625 -79.921875 C 39.910156 -79.921875 35.304688 -78.910156 32.328125 -76.890625 C 29.359375 -74.878906 27.875 -72.226562 27.875 -68.9375 C 27.875 -65.644531 29.585938 -63.195312 33.015625 -61.59375 C 36.453125 -59.988281 41.695312 -58.410156 48.75 -56.859375 C 56.070312 -55.117188 62.066406 -53.378906 66.734375 -51.640625 C 71.410156 -49.898438 75.414062 -47.148438 78.75 -43.390625 C 82.09375 -39.640625 83.765625 -34.5625 83.765625 -28.15625 C 83.765625 -22.65625 82.226562 -17.640625 79.15625 -13.109375 C 76.09375 -8.578125 71.492188 -4.984375 65.359375 -2.328125 C 59.234375 0.316406 51.773438 1.640625 42.984375 1.640625 Z M 42.984375 1.640625 "/></g></g></g></g></g><g transform="matrix(1, 0, 0, 1, 341, 1346)"><g clip-path="url(#b4038548e0)"><g fill="#223947" fill-opacity="1"><g transform="translate(4.392867, 65.192563)"><g><path d="M 52.640625 -48.75 L 31.546875 0 L 20.40625 0 L -0.625 -48.75 L 11.5625 -48.75 L 26.390625 -13.921875 L 41.4375 -48.75 Z M 52.640625 -48.75 "/></g></g></g><g fill="#223947" fill-opacity="1"><g transform="translate(77.217534, 65.192563)"><g><path d="M 43.53125 -9.046875 L 43.53125 0 L 5.78125 0 L 5.78125 -48.75 L 42.625 -48.75 L 42.625 -39.6875 L 17 -39.6875 L 17 -29.109375 L 39.625 -29.109375 L 39.625 -20.328125 L 17 -20.328125 L 17 -9.046875 Z M 43.53125 -9.046875 "/></g></g></g><g fill="#223947" fill-opacity="1"><g transform="translate(144.822107, 65.192563)"><g><path d="M 21.796875 0.828125 C 17.941406 0.828125 14.210938 0.304688 10.609375 -0.734375 C 7.015625 -1.773438 4.128906 -3.132812 1.953125 -4.8125 L 5.78125 -13.296875 C 7.863281 -11.765625 10.34375 -10.535156 13.21875 -9.609375 C 16.101562 -8.679688 18.984375 -8.21875 21.859375 -8.21875 C 25.066406 -8.21875 27.4375 -8.691406 28.96875 -9.640625 C 30.5 -10.597656 31.265625 -11.863281 31.265625 -13.4375 C 31.265625 -14.601562 30.8125 -15.566406 29.90625 -16.328125 C 29 -17.097656 27.835938 -17.710938 26.421875 -18.171875 C 25.003906 -18.640625 23.09375 -19.148438 20.6875 -19.703125 C 16.96875 -20.585938 13.925781 -21.46875 11.5625 -22.34375 C 9.195312 -23.226562 7.164062 -24.644531 5.46875 -26.59375 C 3.769531 -28.550781 2.921875 -31.15625 2.921875 -34.40625 C 2.921875 -37.238281 3.6875 -39.800781 5.21875 -42.09375 C 6.75 -44.394531 9.054688 -46.21875 12.140625 -47.5625 C 15.234375 -48.90625 19.007812 -49.578125 23.46875 -49.578125 C 26.582031 -49.578125 29.625 -49.207031 32.59375 -48.46875 C 35.5625 -47.726562 38.160156 -46.660156 40.390625 -45.265625 L 36.90625 -36.703125 C 32.40625 -39.253906 27.90625 -40.53125 23.40625 -40.53125 C 20.238281 -40.53125 17.898438 -40.019531 16.390625 -39 C 14.890625 -37.976562 14.140625 -36.628906 14.140625 -34.953125 C 14.140625 -33.285156 15.007812 -32.046875 16.75 -31.234375 C 18.488281 -30.421875 21.144531 -29.617188 24.71875 -28.828125 C 28.4375 -27.953125 31.476562 -27.070312 33.84375 -26.1875 C 36.207031 -25.300781 38.238281 -23.90625 39.9375 -22 C 41.632812 -20.101562 42.484375 -17.53125 42.484375 -14.28125 C 42.484375 -11.488281 41.703125 -8.941406 40.140625 -6.640625 C 38.585938 -4.347656 36.253906 -2.53125 33.140625 -1.1875 C 30.035156 0.15625 26.253906 0.828125 21.796875 0.828125 Z M 21.796875 0.828125 "/></g></g></g><g fill="#223947" fill-opacity="1"><g transform="translate(210.129899, 65.192563)"><g/></g></g><g fill="#223947" fill-opacity="1"><g transform="translate(250.729472, 65.192563)"><g><path d="M 21.796875 0.828125 C 17.941406 0.828125 14.210938 0.304688 10.609375 -0.734375 C 7.015625 -1.773438 4.128906 -3.132812 1.953125 -4.8125 L 5.78125 -13.296875 C 7.863281 -11.765625 10.34375 -10.535156 13.21875 -9.609375 C 16.101562 -8.679688 18.984375 -8.21875 21.859375 -8.21875 C 25.066406 -8.21875 27.4375 -8.691406 28.96875 -9.640625 C 30.5 -10.597656 31.265625 -11.863281 31.265625 -13.4375 C 31.265625 -14.601562 30.8125 -15.566406 29.90625 -16.328125 C 29 -17.097656 27.835938 -17.710938 26.421875 -18.171875 C 25.003906 -18.640625 23.09375 -19.148438 20.6875 -19.703125 C 16.96875 -20.585938 13.925781 -21.46875 11.5625 -22.34375 C 9.195312 -23.226562 7.164062 -24.644531 5.46875 -26.59375 C 3.769531 -28.550781 2.921875 -31.15625 2.921875 -34.40625 C 2.921875 -37.238281 3.6875 -39.800781 5.21875 -42.09375 C 6.75 -44.394531 9.054688 -46.21875 12.140625 -47.5625 C 15.234375 -48.90625 19.007812 -49.578125 23.46875 -49.578125 C 26.582031 -49.578125 29.625 -49.207031 32.59375 -48.46875 C 35.5625 -47.726562 38.160156 -46.660156 40.390625 -45.265625 L 36.90625 -36.703125 C 32.40625 -39.253906 27.90625 -40.53125 23.40625 -40.53125 C 20.238281 -40.53125 17.898438 -40.019531 16.390625 -39 C 14.890625 -37.976562 14.140625 -36.628906 14.140625 -34.953125 C 14.140625 -33.285156 15.007812 -32.046875 16.75 -31.234375 C 18.488281 -30.421875 21.144531 -29.617188 24.71875 -28.828125 C 28.4375 -27.953125 31.476562 -27.070312 33.84375 -26.1875 C 36.207031 -25.300781 38.238281 -23.90625 39.9375 -22 C 41.632812 -20.101562 42.484375 -17.53125 42.484375 -14.28125 C 42.484375 -11.488281 41.703125 -8.941406 40.140625 -6.640625 C 38.585938 -4.347656 36.253906 -2.53125 33.140625 -1.1875 C 30.035156 0.15625 26.253906 0.828125 21.796875 0.828125 Z M 21.796875 0.828125 "/></g></g></g><g fill="#223947" fill-opacity="1"><g transform="translate(316.037263, 65.192563)"><g><path d="M 15.875 -39.5625 L 0.28125 -39.5625 L 0.28125 -48.75 L 42.765625 -48.75 L 42.765625 -39.5625 L 27.15625 -39.5625 L 27.15625 0 L 15.875 0 Z M 15.875 -39.5625 "/></g></g></g><g fill="#223947" fill-opacity="1"><g transform="translate(379.953051, 65.192563)"><g><path d="M 37.890625 -10.453125 L 15.25 -10.453125 L 10.9375 0 L -0.625 0 L 21.09375 -48.75 L 32.25 -48.75 L 54.046875 0 L 42.203125 0 Z M 34.328125 -19.015625 L 26.609375 -37.671875 L 18.875 -19.015625 Z M 34.328125 -19.015625 "/></g></g></g><g fill="#223947" fill-opacity="1"><g transform="translate(454.169721, 65.192563)"><g><path d="M 50.484375 -48.75 L 50.484375 0 L 41.234375 0 L 16.921875 -29.59375 L 16.921875 0 L 5.78125 0 L 5.78125 -48.75 L 15.109375 -48.75 L 39.34375 -19.15625 L 39.34375 -48.75 Z M 50.484375 -48.75 "/></g></g></g><g fill="#223947" fill-opacity="1"><g transform="translate(531.309581, 65.192563)"><g><path d="M 5.78125 -48.75 L 27.921875 -48.75 C 33.210938 -48.75 37.890625 -47.738281 41.953125 -45.71875 C 46.015625 -43.695312 49.171875 -40.851562 51.421875 -37.1875 C 53.679688 -33.519531 54.8125 -29.25 54.8125 -24.375 C 54.8125 -19.5 53.679688 -15.226562 51.421875 -11.5625 C 49.171875 -7.894531 46.015625 -5.050781 41.953125 -3.03125 C 37.890625 -1.007812 33.210938 0 27.921875 0 L 5.78125 0 Z M 27.375 -9.265625 C 32.25 -9.265625 36.132812 -10.617188 39.03125 -13.328125 C 41.9375 -16.046875 43.390625 -19.726562 43.390625 -24.375 C 43.390625 -29.019531 41.9375 -32.695312 39.03125 -35.40625 C 36.132812 -38.125 32.25 -39.484375 27.375 -39.484375 L 17.0625 -39.484375 L 17.0625 -9.265625 Z M 27.375 -9.265625 "/></g></g></g><g fill="#223947" fill-opacity="1"><g transform="translate(609.702266, 65.192563)"><g><path d="M 37.890625 -10.453125 L 15.25 -10.453125 L 10.9375 0 L -0.625 0 L 21.09375 -48.75 L 32.25 -48.75 L 54.046875 0 L 42.203125 0 Z M 34.328125 -19.015625 L 26.609375 -37.671875 L 18.875 -19.015625 Z M 34.328125 -19.015625 "/></g></g></g><g fill="#223947" fill-opacity="1"><g transform="translate(683.918936, 65.192563)"><g><path d="M 36.84375 0 L 27.4375 -13.578125 L 17.0625 -13.578125 L 17.0625 0 L 5.78125 0 L 5.78125 -48.75 L 26.875 -48.75 C 31.195312 -48.75 34.945312 -48.03125 38.125 -46.59375 C 41.3125 -45.15625 43.757812 -43.109375 45.46875 -40.453125 C 47.1875 -37.804688 48.046875 -34.675781 48.046875 -31.0625 C 48.046875 -27.4375 47.175781 -24.3125 45.4375 -21.6875 C 43.695312 -19.070312 41.226562 -17.066406 38.03125 -15.671875 L 48.953125 0 Z M 36.625 -31.0625 C 36.625 -33.800781 35.742188 -35.898438 33.984375 -37.359375 C 32.222656 -38.828125 29.644531 -39.5625 26.25 -39.5625 L 17.0625 -39.5625 L 17.0625 -22.5625 L 26.25 -22.5625 C 29.644531 -22.5625 32.222656 -23.300781 33.984375 -24.78125 C 35.742188 -26.269531 36.625 -28.363281 36.625 -31.0625 Z M 36.625 -31.0625 "/></g></g></g><g fill="#223947" fill-opacity="1"><g transform="translate(755.977946, 65.192563)"><g><path d="M 5.78125 -48.75 L 27.921875 -48.75 C 33.210938 -48.75 37.890625 -47.738281 41.953125 -45.71875 C 46.015625 -43.695312 49.171875 -40.851562 51.421875 -37.1875 C 53.679688 -33.519531 54.8125 -29.25 54.8125 -24.375 C 54.8125 -19.5 53.679688 -15.226562 51.421875 -11.5625 C 49.171875 -7.894531 46.015625 -5.050781 41.953125 -3.03125 C 37.890625 -1.007812 33.210938 0 27.921875 0 L 5.78125 0 Z M 27.375 -9.265625 C 32.25 -9.265625 36.132812 -10.617188 39.03125 -13.328125 C 41.9375 -16.046875 43.390625 -19.726562 43.390625 -24.375 C 43.390625 -29.019531 41.9375 -32.695312 39.03125 -35.40625 C 36.132812 -38.125 32.25 -39.484375 27.375 -39.484375 L 17.0625 -39.484375 L 17.0625 -9.265625 Z M 27.375 -9.265625 "/></g></g></g></g></g></svg>